<svg width="922" height="328" viewBox="0 0 922 328" fill="none" xmlns="http://www.w3.org/2000/svg">
<path d="M265.5 228H192V325H167V228H-32.5V209.5L157.5 -25H186L-0.499996 205.5H167.5V120H192V205.5H265.5V228ZM437.648 327.5C410.982 327.5 387.148 320.333 366.148 306C345.482 291.333 329.315 270.667 317.648 244C306.315 217.333 300.648 186 300.648 150C300.648 114 306.315 82.6666 317.648 56C329.315 29.3333 345.482 8.83332 366.148 -5.50001C387.148 -20.1667 410.982 -27.5 437.648 -27.5C464.315 -27.5 487.982 -20.1667 508.648 -5.50001C529.648 8.83332 545.815 29.3333 557.148 56C568.815 82.6666 574.648 114 574.648 150C574.648 186 568.815 217.333 557.148 244C545.815 270.667 529.648 291.333 508.648 306C487.982 320.333 464.315 327.5 437.648 327.5ZM437.648 304C459.648 304 478.982 298 495.648 286C512.648 273.667 525.815 256 535.148 233C544.482 209.667 549.148 182 549.148 150C549.148 118 544.482 90.5 535.148 67.5C525.815 44.1666 512.648 26.5 495.648 14.5C478.982 2.16664 459.648 -4.00003 437.648 -4.00003C415.648 -4.00003 396.148 2.16664 379.148 14.5C362.482 26.5 349.482 44.1666 340.148 67.5C330.815 90.5 326.148 118 326.148 150C326.148 182 330.815 209.667 340.148 233C349.482 256 362.482 273.667 379.148 286C396.148 298 415.648 304 437.648 304ZM921.75 228H848.25V325H823.25V228H623.75V209.5L813.75 -25H842.25L655.75 205.5H823.75V120H848.25V205.5H921.75V228Z" fill="url(#paint0_linear)"/>
<defs>
<linearGradient id="paint0_linear" x1="401.116" y1="-35.25" x2="454.853" y2="294.129" gradientUnits="userSpaceOnUse">
<stop stop-color="#454649"/>
<stop offset="1" stop-color="#454649" stop-opacity="0"/>
</linearGradient>
</defs>
</svg>
