<svg width="140" height="71" viewBox="0 0 140 71" fill="none" xmlns="http://www.w3.org/2000/svg">
<path d="M43.2964 40.9824L50.6383 32.2689C55.3371 35.9795 60.5394 37.9389 66.0354 37.9389C69.5595 37.9389 71.4474 36.7299 71.4474 34.562C71.4474 32.6025 69.8951 31.5185 63.4342 30.0593C53.3233 27.7663 45.5199 24.9313 45.5199 15.0922C45.5199 6.33705 52.5262 0 63.8957 0C71.9509 0 78.2859 2.16794 83.4462 6.25367L76.8595 15.5091C72.5382 12.4656 67.7974 10.8397 63.5601 10.8397C60.3716 10.8397 58.8193 12.1738 58.8193 14.0082C58.8193 16.1762 60.4555 17.0934 67.0423 18.5942C77.9503 20.9706 84.7468 24.4727 84.7468 33.4363C84.7468 43.0669 77.0692 48.8203 65.5319 48.8203C57.1411 48.8203 49.128 46.1938 43.2964 40.9824ZM89.4876 0.792132H103.416L114.744 19.0528L126.071 0.792132H140V47.9865H126.91V20.8873L114.744 39.3564H114.492L102.409 21.0123V47.9865H89.5295V0.792132H89.4876ZM13.0476 36.855V29.3922H35.8286V19.0945H13.0476H0V29.3922V36.855V48.0282H38.5556V36.855H13.0476ZM25.3401 0.792132H17.5367L28.7803 11.9654H36.5838L25.3401 0.792132ZM38.22 5.83676V0.792132H33.1435L38.22 5.83676ZM13.2155 11.9654H20.9769L9.73329 0.792132H1.97183L13.2155 11.9654ZM0 6.5872V11.9654H5.41205L0 6.5872ZM6.75457 59.3265C7.42583 59.3265 8.05514 59.4932 8.64249 59.7851C9.22985 60.0769 9.64939 60.5355 10.027 61.0358C10.3626 61.5778 10.5304 62.1615 10.5304 62.8285C10.5304 63.5373 10.3626 64.1627 9.98502 64.7046C9.60743 65.2883 9.10398 65.7052 8.51663 66.0387C7.88732 66.3723 7.21606 66.5391 6.46089 66.5391H1.80402V70.8749H0V59.3682H6.75457V59.3265ZM6.29308 64.9131C6.71262 64.9131 7.13215 64.8297 7.46778 64.6213C7.80342 64.4545 8.09709 64.2043 8.30686 63.8708C8.51663 63.579 8.64249 63.2454 8.64249 62.8702C8.64249 62.5367 8.51663 62.2032 8.30686 61.953C8.09709 61.6612 7.80342 61.4527 7.46778 61.286C7.13215 61.1192 6.71262 61.0358 6.29308 61.0358H1.80402V64.8714H6.29308V64.9131ZM24.6269 62.8702C24.6269 63.4122 24.501 63.9125 24.2913 64.3711C24.0396 64.8297 23.7459 65.2466 23.3263 65.5802C22.9068 65.9137 22.4453 66.2055 21.9419 66.3723L25.3401 70.8332H23.1166L19.8861 66.5807H15.9005V70.8749H14.0965V59.3682H20.8511C21.5223 59.3682 22.1516 59.5349 22.739 59.8268C23.3263 60.1186 23.7459 60.5772 24.1235 61.0775C24.4591 61.6195 24.6269 62.2032 24.6269 62.8702ZM20.3896 61.0358H15.9005V64.8714H20.3896C20.8091 64.8714 21.2286 64.788 21.5643 64.5796C21.8999 64.3711 22.1936 64.1627 22.4034 63.8291C22.6131 63.5373 22.739 63.2038 22.739 62.8285C22.739 62.495 22.6131 62.1615 22.4034 61.9113C22.1936 61.6195 21.8999 61.411 21.5643 61.2443C21.2286 61.1192 20.8091 61.0358 20.3896 61.0358ZM42.1217 65.0799C42.1217 65.9137 41.9538 66.7058 41.6182 67.4146C41.2826 68.1233 40.7791 68.7487 40.1498 69.2907C39.5205 69.8326 38.7654 70.2496 37.9263 70.5414C37.0872 70.8332 36.1223 71 35.1154 71C34.1085 71 33.1435 70.8332 32.3045 70.5414C31.4654 70.2496 30.7102 69.8326 30.0809 69.2907C29.4516 68.7487 28.9901 68.1233 28.6125 67.4146C28.2769 66.7058 28.1091 65.9137 28.1091 65.0799C28.1091 64.246 28.2769 63.4539 28.6125 62.7452C28.9482 62.0364 29.4516 61.411 30.0809 60.8691C30.7102 60.3271 31.4654 59.9102 32.3045 59.6183C33.1435 59.3265 34.1085 59.1597 35.1154 59.1597C36.1223 59.1597 37.0872 59.3265 37.9263 59.6183C38.7654 59.9102 39.5205 60.3271 40.1498 60.8691C40.7791 61.411 41.2826 62.0364 41.6182 62.7452C41.9538 63.4956 42.1217 64.246 42.1217 65.0799ZM40.3176 65.0799C40.3176 64.2877 40.1079 63.579 39.6464 62.9536C39.1849 62.3282 38.5975 61.8279 37.8004 61.4527C37.0033 61.0775 36.1223 60.9107 35.1154 60.9107C34.1085 60.9107 33.1855 61.0775 32.3884 61.4527C31.5912 61.8279 31.0039 62.3282 30.5844 62.9536C30.1648 63.579 29.9131 64.2877 29.9131 65.0799C29.9131 65.872 30.1229 66.5807 30.5844 67.2061C31.0458 67.8315 31.6332 68.3318 32.3884 68.707C33.1855 69.0822 34.0665 69.249 35.1154 69.249C36.1223 69.249 37.0452 69.0822 37.8004 68.707C38.5975 68.3318 39.1849 67.8315 39.6464 67.2061C40.1079 66.5807 40.3176 65.872 40.3176 65.0799ZM51.4774 59.3265C52.5262 59.3265 53.4912 59.4932 54.2883 59.7851C55.0854 60.0769 55.7567 60.4938 56.344 61.0358C56.8894 61.5778 57.309 62.1615 57.5607 62.8702C57.8544 63.579 57.9802 64.2877 57.9802 65.0799C57.9802 66.1221 57.7285 67.081 57.225 67.9566C56.7216 68.8321 56.0084 69.5408 55.0434 70.0411C54.0785 70.5831 52.9038 70.8332 51.4354 70.8332H45.5619V59.3265H51.4774ZM51.3935 69.1239C52.4843 69.1239 53.4072 68.9571 54.0785 68.5819C54.7498 68.2067 55.2532 67.7481 55.5889 67.1227C55.9245 66.4974 56.0923 65.8303 56.0923 65.0799C56.0923 64.3711 55.9245 63.7041 55.5889 63.0787C55.2532 62.4533 54.7498 61.953 54.0785 61.6195C53.4072 61.2443 52.4843 61.0775 51.3935 61.0775H47.4079V69.1656H51.3935V69.1239ZM72.9158 59.3265V65.33C72.9158 66.414 72.6641 67.3729 72.2026 68.2067C71.7411 69.0405 71.0279 69.7076 70.1888 70.2079C69.3078 70.7082 68.3009 70.9166 67.1262 70.9166C65.9515 70.9166 64.9446 70.6665 64.0635 70.2079C63.1825 69.7076 62.5112 69.0822 62.0078 68.2067C61.5463 67.3729 61.2946 66.414 61.2946 65.33V59.3265H63.0986V65.2883C63.0986 66.0388 63.2664 66.7475 63.644 67.3312C64.0216 67.9149 64.4831 68.3735 65.1124 68.7487C65.7417 69.0822 66.4129 69.249 67.1681 69.249C67.9652 69.249 68.6785 69.0822 69.3078 68.7487C69.9371 68.4151 70.4405 67.9566 70.7761 67.3312C71.1118 66.7475 71.3215 66.0805 71.3215 65.2883V59.3265H72.9158ZM88.145 69.1239C87.8514 69.374 87.4318 69.6659 86.8864 69.9577C86.341 70.2496 85.7537 70.4997 85.0824 70.7082C84.4111 70.9166 83.656 71 82.9008 71C81.9778 71 81.0968 70.8749 80.2577 70.5831C79.4606 70.2913 78.7474 69.916 78.1181 69.374C77.5307 68.8737 77.0273 68.2484 76.6916 67.4979C76.356 66.7475 76.1882 65.9554 76.1882 65.0382C76.1882 64.2043 76.356 63.4122 76.7336 62.7035C77.1112 61.9947 77.5727 61.3693 78.202 60.8274C78.8313 60.2854 79.5445 59.9102 80.3416 59.6183C81.1387 59.3265 81.9778 59.2014 82.9008 59.2014C83.656 59.2014 84.3692 59.2848 85.0405 59.4932C85.7117 59.66 86.341 59.9102 86.8864 60.202C87.4318 60.4938 87.8933 60.7857 88.229 61.1192L87.1801 62.6201C86.5928 62.1198 85.9215 61.7446 85.2083 61.411C84.4951 61.0775 83.656 60.9524 82.733 60.9524C82.1456 60.9524 81.5583 61.0358 81.0129 61.2443C80.4675 61.4527 79.964 61.7029 79.5025 62.0781C79.0411 62.4533 78.7054 62.8702 78.4537 63.3705C78.202 63.8708 78.0761 64.4545 78.0761 65.0799C78.0761 65.7886 78.202 66.3723 78.4957 66.9143C78.7893 67.4146 79.125 67.8732 79.6284 68.2484C80.0899 68.6236 80.6353 68.8738 81.2227 69.0405C81.81 69.2073 82.4393 69.2907 83.0686 69.2907C83.7399 69.2907 84.3272 69.2073 84.8307 69.0405C85.3341 68.8738 85.7956 68.6653 86.2152 68.4152C86.6347 68.165 87.0123 67.9149 87.306 67.6647L88.145 69.1239ZM94.7318 70.8749V61.0775H90.3266V59.3682H101.025V61.0775H96.4939V70.8749H94.7318ZM123.974 65.0799C123.974 65.9137 123.806 66.7058 123.47 67.4146C123.135 68.1233 122.631 68.7487 122.002 69.2907C121.372 69.8326 120.617 70.2496 119.778 70.5414C118.939 70.8332 117.974 71 116.967 71C115.96 71 114.996 70.8332 114.156 70.5414C113.317 70.2496 112.562 69.8326 111.933 69.2907C111.304 68.7487 110.842 68.1233 110.464 67.4146C110.129 66.7058 109.961 65.9137 109.961 65.0799C109.961 64.246 110.129 63.4539 110.464 62.7452C110.8 62.0364 111.304 61.411 111.933 60.8691C112.562 60.3271 113.275 59.9102 114.156 59.6183C114.996 59.3265 115.96 59.1597 116.967 59.1597C117.974 59.1597 118.939 59.3265 119.778 59.6183C120.617 59.9102 121.372 60.3271 122.002 60.8691C122.631 61.411 123.135 62.0364 123.47 62.7452C123.806 63.4956 123.974 64.246 123.974 65.0799ZM122.17 65.0799C122.17 64.2877 121.96 63.579 121.498 62.9536C121.037 62.3282 120.45 61.8279 119.652 61.4527C118.855 61.0775 117.974 60.9107 116.967 60.9107C115.96 60.9107 115.037 61.0775 114.24 61.4527C113.443 61.8279 112.856 62.3282 112.436 62.9536C112.017 63.579 111.765 64.2877 111.765 65.0799C111.765 65.872 111.975 66.5807 112.436 67.2061C112.856 67.8315 113.485 68.3318 114.24 68.707C115.037 69.0822 115.918 69.249 116.967 69.249C117.974 69.249 118.897 69.0822 119.652 68.707C120.45 68.3318 121.037 67.8315 121.498 67.2061C121.918 66.5807 122.17 65.872 122.17 65.0799ZM138.196 59.3265H140V70.8749H138.196C135.217 67.9566 132.239 65.0382 129.26 62.1198C129.26 62.7868 129.26 65.4134 129.26 66.0804V70.8749H127.456V59.3682H129.218C132.197 62.3699 135.217 65.3717 138.196 68.3735C138.196 66.7475 138.196 60.744 138.196 59.3265ZM106.395 59.3265H104.591V70.8749H106.395V59.3265Z" fill="white"/>
</svg>
