<svg width="82" height="42" viewBox="0 0 82 42" fill="none" xmlns="http://www.w3.org/2000/svg">
<g clip-path="url(#clip0)">
<path d="M25.3593 24.155L29.6596 19.0192C32.4117 21.2062 35.4588 22.3612 38.6779 22.3612C40.742 22.3612 41.8478 21.6485 41.8478 20.3707C41.8478 19.2158 40.9386 18.5769 37.1543 17.7169C31.2322 16.3654 26.6617 14.6944 26.6617 8.89517C26.6617 3.73485 30.7654 -0.000244141 37.4246 -0.000244141C42.1426 -0.000244141 45.8532 1.27755 48.8756 3.6857L45.0177 9.1409C42.4867 7.34707 39.7099 6.38873 37.228 6.38873C35.3605 6.38873 34.4513 7.17506 34.4513 8.25627C34.4513 9.53407 35.4096 10.0747 39.2676 10.9593C45.6566 12.36 49.6374 14.4241 49.6374 19.7073C49.6374 25.3836 45.1405 28.7747 38.383 28.7747C33.4684 28.7747 28.7749 27.2266 25.3593 24.155ZM52.4141 0.466642H60.5724L67.2071 11.2296L73.8418 0.466642H82V28.2832H74.3332V12.3108L67.2071 23.1966H67.0596L59.9826 12.3845V28.2832H52.4387V0.466642H52.4141ZM7.64219 21.7223V17.3237H20.9853V11.2542H7.64219H0V17.3237V21.7223V28.3078H22.5826V21.7223H7.64219ZM14.8421 0.466642H10.2715L16.8571 7.0522H21.4276L14.8421 0.466642ZM22.386 3.43997V0.466642H19.4126L22.386 3.43997ZM7.74049 7.0522H12.2865L5.70093 0.466642H1.15493L7.74049 7.0522ZM0 3.88228V7.0522H3.16991L0 3.88228ZM3.95625 34.9671C4.34942 34.9671 4.71801 35.0654 5.06203 35.2374C5.40605 35.4094 5.65178 35.6797 5.87294 35.9746C6.06952 36.294 6.16782 36.6381 6.16782 37.0312C6.16782 37.449 6.06952 37.8176 5.84837 38.137C5.62721 38.481 5.33233 38.7268 4.98831 38.9233C4.61972 39.1199 4.22655 39.2182 3.78424 39.2182H1.05664V41.7738H0V34.9917H3.95625V34.9671ZM3.68595 38.2599C3.93167 38.2599 4.1774 38.2107 4.37399 38.0879C4.57057 37.9896 4.74258 37.8421 4.86545 37.6455C4.98831 37.4735 5.06203 37.277 5.06203 37.0558C5.06203 36.8592 4.98831 36.6626 4.86545 36.5152C4.74258 36.3432 4.57057 36.2203 4.37399 36.122C4.1774 36.0237 3.93167 35.9746 3.68595 35.9746H1.05664V38.2353H3.68595V38.2599ZM14.4243 37.0558C14.4243 37.3752 14.3506 37.6701 14.2277 37.9404C14.0803 38.2107 13.9083 38.4565 13.6626 38.653C13.4168 38.8496 13.1465 39.0216 12.8517 39.1199L14.8421 41.7492H13.5397L11.6476 39.2428H9.31316V41.7738H8.25652V34.9917H12.2128C12.6059 34.9917 12.9745 35.09 13.3185 35.262C13.6626 35.434 13.9083 35.7043 14.1295 35.9992C14.326 36.3186 14.4243 36.6626 14.4243 37.0558ZM11.9425 35.9746H9.31316V38.2353H11.9425C12.1882 38.2353 12.4339 38.1861 12.6305 38.0633C12.8271 37.9404 12.9991 37.8176 13.122 37.621C13.2448 37.449 13.3185 37.2524 13.3185 37.0312C13.3185 36.8346 13.2448 36.6381 13.122 36.4906C12.9991 36.3186 12.8271 36.1957 12.6305 36.0974C12.4339 36.0237 12.1882 35.9746 11.9425 35.9746ZM24.6713 38.3582C24.6713 38.8496 24.573 39.3165 24.3764 39.7342C24.1798 40.152 23.8849 40.5206 23.5163 40.84C23.1477 41.1595 22.7054 41.4052 22.214 41.5772C21.7225 41.7492 21.1573 41.8475 20.5676 41.8475C19.9778 41.8475 19.4126 41.7492 18.9212 41.5772C18.4297 41.4052 17.9874 41.1595 17.6188 40.84C17.2502 40.5206 16.9799 40.152 16.7588 39.7342C16.5622 39.3165 16.4639 38.8496 16.4639 38.3582C16.4639 37.8667 16.5622 37.3998 16.7588 36.9821C16.9553 36.5643 17.2502 36.1957 17.6188 35.8763C17.9874 35.5568 18.4297 35.3111 18.9212 35.1391C19.4126 34.9671 19.9778 34.8688 20.5676 34.8688C21.1573 34.8688 21.7225 34.9671 22.214 35.1391C22.7054 35.3111 23.1477 35.5568 23.5163 35.8763C23.8849 36.1957 24.1798 36.5643 24.3764 36.9821C24.573 37.4244 24.6713 37.8667 24.6713 38.3582ZM23.6146 38.3582C23.6146 37.8913 23.4918 37.4735 23.2215 37.1049C22.9512 36.7363 22.6071 36.4415 22.1402 36.2203C21.6734 35.9992 21.1573 35.9009 20.5676 35.9009C19.9778 35.9009 19.4372 35.9992 18.9703 36.2203C18.5034 36.4415 18.1594 36.7363 17.9137 37.1049C17.668 37.4735 17.5205 37.8913 17.5205 38.3582C17.5205 38.825 17.6434 39.2428 17.9137 39.6114C18.184 39.98 18.528 40.2749 18.9703 40.496C19.4372 40.7172 19.9532 40.8155 20.5676 40.8155C21.1573 40.8155 21.6979 40.7172 22.1402 40.496C22.6071 40.2749 22.9512 39.98 23.2215 39.6114C23.4918 39.2428 23.6146 38.825 23.6146 38.3582ZM30.151 34.9671C30.7654 34.9671 31.3305 35.0654 31.7974 35.2374C32.2643 35.4094 32.6575 35.6551 33.0015 35.9746C33.3209 36.294 33.5667 36.6381 33.7141 37.0558C33.8861 37.4735 33.9598 37.8913 33.9598 38.3582C33.9598 38.9725 33.8124 39.5377 33.5175 40.0537C33.2227 40.5697 32.8049 40.9875 32.2397 41.2823C31.6746 41.6018 30.9865 41.7492 30.1265 41.7492H26.6862V34.9671H30.151ZM30.1019 40.7417C30.7408 40.7417 31.2814 40.6434 31.6746 40.4223C32.0677 40.2011 32.3626 39.9308 32.5592 39.5622C32.7558 39.1936 32.8541 38.8005 32.8541 38.3582C32.8541 37.9404 32.7558 37.5473 32.5592 37.1787C32.3626 36.8101 32.0677 36.5152 31.6746 36.3186C31.2814 36.0974 30.7408 35.9992 30.1019 35.9992H27.7675V40.7663H30.1019V40.7417ZM42.7078 34.9671V38.5056C42.7078 39.1445 42.5604 39.7097 42.2901 40.2011C42.0198 40.6926 41.602 41.0858 41.1106 41.3806C40.5945 41.6755 40.0048 41.7984 39.3167 41.7984C38.6287 41.7984 38.039 41.6509 37.5229 41.3806C37.0069 41.0858 36.6137 40.7172 36.3188 40.2011C36.0485 39.7097 35.9011 39.1445 35.9011 38.5056V34.9671H36.9577V38.481C36.9577 38.9233 37.056 39.3411 37.2772 39.6851C37.4983 40.0291 37.7687 40.2994 38.1372 40.5206C38.5058 40.7172 38.899 40.8155 39.3413 40.8155C39.8082 40.8155 40.2259 40.7172 40.5945 40.5206C40.9631 40.324 41.258 40.0537 41.4546 39.6851C41.6512 39.3411 41.774 38.9479 41.774 38.481V34.9671H42.7078ZM51.6278 40.7417C51.4558 40.8892 51.2101 41.0612 50.8906 41.2332C50.5712 41.4052 50.2271 41.5526 49.834 41.6755C49.4408 41.7984 48.9985 41.8475 48.5562 41.8475C48.0156 41.8475 47.4995 41.7738 47.0081 41.6018C46.5412 41.4298 46.1235 41.2086 45.7549 40.8892C45.4108 40.5943 45.116 40.2257 44.9194 39.7834C44.7228 39.3411 44.6245 38.8742 44.6245 38.3336C44.6245 37.8421 44.7228 37.3752 44.944 36.9575C45.1651 36.5398 45.4354 36.1712 45.804 35.8517C46.1726 35.5323 46.5903 35.3111 47.0572 35.1391C47.5241 34.9671 48.0156 34.8934 48.5562 34.8934C48.9985 34.8934 49.4162 34.9425 49.8094 35.0654C50.2026 35.1637 50.5712 35.3111 50.8906 35.4831C51.2101 35.6551 51.4804 35.8271 51.677 36.0237L51.0626 36.9084C50.7186 36.6135 50.3254 36.3923 49.9077 36.1957C49.49 35.9992 48.9985 35.9254 48.4579 35.9254C48.1139 35.9254 47.7699 35.9746 47.4504 36.0974C47.131 36.2203 46.8361 36.3677 46.5658 36.5889C46.2955 36.8101 46.0989 37.0558 45.9515 37.3507C45.804 37.6455 45.7303 37.9896 45.7303 38.3582C45.7303 38.7759 45.804 39.1199 45.976 39.4394C46.148 39.7342 46.3446 40.0045 46.6395 40.2257C46.9098 40.4469 47.2292 40.5943 47.5733 40.6926C47.9173 40.7909 48.2859 40.84 48.6545 40.84C49.0476 40.84 49.3917 40.7909 49.6865 40.6926C49.9814 40.5943 50.2517 40.4714 50.4975 40.324C50.7432 40.1766 50.9643 40.0291 51.1363 39.8817L51.6278 40.7417ZM55.4858 41.7738V35.9992H52.9056V34.9917H59.1717V35.9992H56.5178V41.7738H55.4858ZM72.6131 38.3582C72.6131 38.8496 72.5148 39.3165 72.3182 39.7342C72.1217 40.152 71.8268 40.5206 71.4582 40.84C71.0896 41.1595 70.6473 41.4052 70.1558 41.5772C69.6644 41.7492 69.0992 41.8475 68.5094 41.8475C67.9197 41.8475 67.3545 41.7492 66.8631 41.5772C66.3716 41.4052 65.9293 41.1595 65.5607 40.84C65.1921 40.5206 64.9218 40.152 64.7006 39.7342C64.504 39.3165 64.4058 38.8496 64.4058 38.3582C64.4058 37.8667 64.504 37.3998 64.7006 36.9821C64.8972 36.5643 65.1921 36.1957 65.5607 35.8763C65.9293 35.5568 66.347 35.3111 66.8631 35.1391C67.3545 34.9671 67.9197 34.8688 68.5094 34.8688C69.0992 34.8688 69.6644 34.9671 70.1558 35.1391C70.6473 35.3111 71.0896 35.5568 71.4582 35.8763C71.8268 36.1957 72.1217 36.5643 72.3182 36.9821C72.5148 37.4244 72.6131 37.8667 72.6131 38.3582ZM71.5565 38.3582C71.5565 37.8913 71.4336 37.4735 71.1633 37.1049C70.893 36.7363 70.549 36.4415 70.0821 36.2203C69.6152 35.9992 69.0992 35.9009 68.5094 35.9009C67.9197 35.9009 67.3791 35.9992 66.9122 36.2203C66.4453 36.4415 66.1013 36.7363 65.8556 37.1049C65.6098 37.4735 65.4624 37.8913 65.4624 38.3582C65.4624 38.825 65.5853 39.2428 65.8556 39.6114C66.1013 39.98 66.4699 40.2749 66.9122 40.496C67.3791 40.7172 67.8951 40.8155 68.5094 40.8155C69.0992 40.8155 69.6398 40.7172 70.0821 40.496C70.549 40.2749 70.893 39.98 71.1633 39.6114C71.409 39.2428 71.5565 38.825 71.5565 38.3582ZM80.9434 34.9671H82V41.7738H80.9434C79.1987 40.0537 77.454 38.3336 75.7093 36.6135C75.7093 37.0066 75.7093 38.5547 75.7093 38.9479V41.7738H74.6527V34.9917H75.6847C77.4294 36.7609 79.1987 38.5302 80.9434 40.2994C80.9434 39.3411 80.9434 35.8026 80.9434 34.9671ZM62.3171 34.9671H61.2604V41.7738H62.3171V34.9671Z" fill="white"/>
</g>
<defs>
<clipPath id="clip0">
<rect y="-0.000244141" width="82" height="41.8478" fill="white"/>
</clipPath>
</defs>
</svg>
