<svg width="30" height="30" viewBox="0 0 30 30" fill="none" xmlns="http://www.w3.org/2000/svg">
<rect width="30" height="30" rx="15" fill="white"/>
<path d="M23.0312 11.6875C23.1562 11.2292 22.9688 11 22.4688 11H20.625C20.25 11 19.9896 11.1771 19.8438 11.5312L19.5312 12.1562C19.2812 12.6979 19.0208 13.1979 18.75 13.6562C18.3542 14.3021 17.9583 14.8438 17.5625 15.2812C17.3542 15.5104 17.1875 15.6667 17.0625 15.75C16.9375 15.8125 16.8229 15.8438 16.7188 15.8438C16.6354 15.8438 16.5625 15.8021 16.5 15.7188C16.4375 15.6354 16.4062 15.5 16.4062 15.3125V11.6875C16.4062 11.4375 16.3646 11.2604 16.2812 11.1562C16.2188 11.0521 16.0938 11 15.9062 11H13C12.875 11 12.7604 11.0417 12.6562 11.125C12.5729 11.2083 12.5312 11.3125 12.5312 11.4375C12.5312 11.5417 12.6042 11.6875 12.75 11.875C12.8958 12.0417 13 12.1979 13.0625 12.3438C13.1875 12.5938 13.2604 12.8854 13.2812 13.2188V15.9375C13.2812 16.2083 13.25 16.3958 13.1875 16.5C13.1458 16.5833 13.0625 16.625 12.9375 16.625C12.7292 16.625 12.4375 16.3958 12.0625 15.9375C11.6875 15.4792 11.3125 14.8854 10.9375 14.1562C10.5208 13.3646 10.1667 12.5521 9.875 11.7188C9.79167 11.4479 9.6875 11.2604 9.5625 11.1562C9.45833 11.0521 9.29167 11 9.0625 11H7.21875C6.80208 11 6.59375 11.1771 6.59375 11.5312C6.59375 11.7396 6.66667 12.1042 6.8125 12.625C7.04167 13.2708 7.34375 13.9688 7.71875 14.7188C8.19792 15.6979 8.79167 16.6667 9.5 17.625C10.25 18.7083 11.125 19.5417 12.125 20.125C13.125 20.7083 14.1146 21 15.0938 21C15.6562 21 16.0312 20.9375 16.2188 20.8125C16.3646 20.7083 16.4271 20.5312 16.4062 20.2812V19.4688C16.4062 18.9688 16.4167 18.6458 16.4375 18.5C16.4375 18.2917 16.4688 18.1562 16.5312 18.0938C16.6146 18.0312 16.7396 18 16.9062 18C17.3021 18 17.9167 18.3958 18.75 19.1875C19 19.4375 19.2812 19.75 19.5938 20.125C19.9271 20.4792 20.1562 20.6979 20.2812 20.7812C20.4688 20.9271 20.6771 21 20.9062 21H22.75C23 21 23.1771 20.9375 23.2812 20.8125C23.4062 20.6667 23.4375 20.4688 23.375 20.2188C23.1875 19.6354 22.3438 18.5729 20.8438 17.0312L20.5625 16.7188C20.4375 16.5729 20.375 16.4479 20.375 16.3438C20.375 16.2396 20.4375 16.0938 20.5625 15.9062C20.5833 15.8854 20.7812 15.6042 21.1562 15.0625C21.5938 14.375 21.9688 13.7708 22.2812 13.25C22.7188 12.5208 22.9688 12 23.0312 11.6875Z" fill="black"/>
</svg>
