<svg width="30" height="30" viewBox="0 0 30 30" fill="none" xmlns="http://www.w3.org/2000/svg">
<rect width="30" height="30" rx="15" fill="white"/>
<path d="M14.75 11.0078C13.9427 11.0078 13.1875 11.2161 12.4844 11.6328C11.8073 12.0234 11.2604 12.5703 10.8438 13.2734C10.4531 13.9505 10.2578 14.6927 10.2578 15.5C10.2578 16.3073 10.4531 17.0625 10.8438 17.7656C11.2604 18.4427 11.8073 18.9896 12.4844 19.4062C13.1875 19.7969 13.9427 19.9922 14.75 19.9922C15.5573 19.9922 16.2995 19.7969 16.9766 19.4062C17.6797 18.9896 18.2266 18.4427 18.6172 17.7656C19.0339 17.0625 19.2422 16.3073 19.2422 15.5C19.2422 14.6927 19.0339 13.9505 18.6172 13.2734C18.2266 12.5703 17.6797 12.0234 16.9766 11.6328C16.2995 11.2161 15.5573 11.0078 14.75 11.0078ZM14.75 18.4297C13.9427 18.4297 13.2526 18.1432 12.6797 17.5703C12.1068 16.9974 11.8203 16.3073 11.8203 15.5C11.8203 14.6927 12.1068 14.0026 12.6797 13.4297C13.2526 12.8568 13.9427 12.5703 14.75 12.5703C15.5573 12.5703 16.2474 12.8568 16.8203 13.4297C17.3932 14.0026 17.6797 14.6927 17.6797 15.5C17.6797 16.3073 17.3932 16.9974 16.8203 17.5703C16.2474 18.1432 15.5573 18.4297 14.75 18.4297ZM20.4922 10.8125C20.4661 11.099 20.349 11.3464 20.1406 11.5547C19.9583 11.763 19.724 11.8672 19.4375 11.8672C19.151 11.8672 18.9036 11.763 18.6953 11.5547C18.487 11.3464 18.3828 11.099 18.3828 10.8125C18.3828 10.526 18.487 10.2786 18.6953 10.0703C18.9036 9.86198 19.151 9.75781 19.4375 9.75781C19.724 9.75781 19.9714 9.86198 20.1797 10.0703C20.388 10.2786 20.4922 10.526 20.4922 10.8125ZM23.4609 11.8672C23.4089 11.112 23.2917 10.4609 23.1094 9.91406C22.875 9.26302 22.5104 8.70312 22.0156 8.23438C21.5469 7.73958 20.987 7.375 20.3359 7.14062C19.7891 6.95833 19.138 6.85417 18.3828 6.82812C17.6536 6.77604 16.4427 6.75 14.75 6.75C13.0573 6.75 11.8333 6.77604 11.0781 6.82812C10.349 6.85417 9.71094 6.95833 9.16406 7.14062C8.51302 7.375 7.9401 7.73958 7.44531 8.23438C6.97656 8.70312 6.625 9.26302 6.39062 9.91406C6.20833 10.4609 6.09115 11.112 6.03906 11.8672C6.01302 12.5964 6 13.8073 6 15.5C6 17.1927 6.01302 18.4167 6.03906 19.1719C6.09115 19.901 6.20833 20.5391 6.39062 21.0859C6.625 21.737 6.97656 22.3099 7.44531 22.8047C7.9401 23.2734 8.51302 23.612 9.16406 23.8203C9.71094 24.0286 10.349 24.1458 11.0781 24.1719C11.8333 24.224 13.0573 24.25 14.75 24.25C16.4427 24.25 17.6536 24.224 18.3828 24.1719C19.138 24.1458 19.7891 24.0417 20.3359 23.8594C20.987 23.625 21.5469 23.2734 22.0156 22.8047C22.5104 22.3099 22.875 21.737 23.1094 21.0859C23.2917 20.5391 23.3958 19.901 23.4219 19.1719C23.474 18.4167 23.5 17.1927 23.5 15.5C23.5 13.8073 23.487 12.5964 23.4609 11.8672ZM21.5859 20.6562C21.2734 21.4375 20.7135 21.9974 19.9062 22.3359C19.4896 22.4922 18.7865 22.5964 17.7969 22.6484C17.25 22.6745 16.4427 22.6875 15.375 22.6875H14.125C13.0833 22.6875 12.276 22.6745 11.7031 22.6484C10.7396 22.5964 10.0365 22.4922 9.59375 22.3359C8.8125 22.0234 8.2526 21.4635 7.91406 20.6562C7.75781 20.2135 7.65365 19.5104 7.60156 18.5469C7.57552 17.974 7.5625 17.1667 7.5625 16.125V14.875C7.5625 13.8333 7.57552 13.026 7.60156 12.4531C7.65365 11.4635 7.75781 10.7604 7.91406 10.3438C8.22656 9.53646 8.78646 8.97656 9.59375 8.66406C10.0365 8.50781 10.7396 8.40365 11.7031 8.35156C12.276 8.32552 13.0833 8.3125 14.125 8.3125H15.375C16.4167 8.3125 17.224 8.32552 17.7969 8.35156C18.7865 8.40365 19.4896 8.50781 19.9062 8.66406C20.7135 8.97656 21.2734 9.53646 21.5859 10.3438C21.7422 10.7604 21.8464 11.4635 21.8984 12.4531C21.9245 13 21.9375 13.8073 21.9375 14.875V16.125C21.9375 17.1667 21.9245 17.974 21.8984 18.5469C21.8464 19.5104 21.7422 20.2135 21.5859 20.6562Z" fill="black"/>
</svg>
